<svg width="47" height="75" viewBox="0 0 47 75" fill="none" xmlns="http://www.w3.org/2000/svg">
<path fill-rule="evenodd" clip-rule="evenodd" d="M24.424 0.231679C24.7082 0.383778 24.9505 0.603691 25.1293 0.8719L36.8794 18.497C37.0756 18.7919 37.1882 19.1345 37.2051 19.4883C37.222 19.8421 37.1427 20.1939 36.9755 20.5062C36.8083 20.8185 36.5595 21.0796 36.2557 21.2617C35.9518 21.4438 35.6043 21.54 35.25 21.5402C35.083 21.5402 34.9811 21.724 35.0697 21.8656L42.3365 33.486C42.6371 33.9667 42.8737 34.4849 43.0707 35.0164C43.0822 35.0474 43.0836 35.0803 43.0866 35.1972C43.0958 35.5466 43.0113 35.8922 42.8418 36.1979C42.6724 36.5037 42.4241 36.7585 42.1229 36.9359C41.8588 37.0915 41.2935 37.1826 41.1584 37.2027C41.1388 37.2056 41.119 37.2069 41.0991 37.2069C40.7691 37.2069 40.5544 37.5542 40.7019 37.8494L46.7925 50.038C46.9421 50.3365 47.0129 50.6684 46.9981 51.002C46.9833 51.3356 46.8834 51.6599 46.708 51.9441C46.5326 52.2282 46.2874 52.4628 45.9957 52.6255C45.7041 52.7882 45.3757 52.8736 45.0417 52.8736L32.0281 52.8746C28.5001 52.8749 25.7338 55.9043 26.0532 59.4179L27.0621 70.5163C27.2526 72.6109 25.6033 74.4169 23.5001 74.4169C21.3968 74.4169 19.7476 72.6109 19.938 70.5163L20.9469 59.4179C21.2663 55.9043 18.5 52.8749 14.972 52.8746L1.95827 52.8736C1.62432 52.8736 1.29592 52.7882 1.00428 52.6255C0.712638 52.4628 0.467446 52.2282 0.292007 51.9441C0.116568 51.6599 0.0167089 51.3356 0.00192118 51.002C-0.0128665 50.6684 0.0579082 50.3365 0.207519 50.038L6.28848 37.876C6.44219 37.5686 6.21865 37.2069 5.87495 37.2069C5.52538 37.2069 5.18218 37.1133 4.88098 36.9359C4.57978 36.7585 4.33156 36.5037 4.1621 36.1979C3.99264 35.8922 3.90811 35.5466 3.91728 35.1972C3.92646 34.8477 4.02901 34.5071 4.21428 34.2107L11.9304 21.8657C12.0189 21.724 11.9171 21.5402 11.75 21.5402C11.3957 21.54 11.0482 21.4438 10.7443 21.2617C10.4405 21.0796 10.1917 20.8185 10.0245 20.5062C9.85731 20.1939 9.77795 19.8421 9.79488 19.4883C9.8118 19.1345 9.92439 18.7919 10.1206 18.497L21.8707 0.8719C22.0495 0.603691 22.2918 0.383778 22.576 0.231679C22.8603 0.0795806 23.1776 0 23.5 0C23.8224 0 24.1397 0.0795806 24.424 0.231679ZM16.6602 17.8955C16.9611 18.0732 17.2091 18.3282 17.3782 18.634C17.5476 18.9395 17.6322 19.2847 17.6232 19.6338C17.6143 19.983 17.5121 20.3234 17.3273 20.6198L9.61123 32.9648C9.52267 33.1064 9.62454 33.2902 9.79163 33.2902C10.1256 33.2902 10.454 33.3757 10.7456 33.5384C11.0373 33.701 11.2825 33.9356 11.4579 34.2198C11.6333 34.5039 11.7332 34.8282 11.748 35.1619C11.7628 35.4955 11.692 35.8273 11.5424 36.1259L9.46851 40.2737C7.4738 44.2631 10.3748 48.9569 14.8351 48.9569H21.6754L22.4543 14.6868C22.4909 13.0758 21.1949 11.7501 19.5835 11.7501H23.5002H27.4169C25.8065 11.7501 24.5125 13.0768 24.5528 14.6867L25.4095 48.9569H32.1637C36.6233 48.9569 39.5243 44.2643 37.5309 40.275L35.7689 36.7489C35.5621 36.335 35.413 35.8956 35.2757 35.4536C35.2441 35.3521 35.2443 35.3368 35.252 35.1619C35.2668 34.8282 35.3667 34.5039 35.5421 34.2198C35.7175 33.9356 35.9627 33.701 36.2544 33.5384C36.5222 33.3889 37.1027 33.3047 37.1957 33.2919C37.2044 33.2907 37.2128 33.2902 37.2216 33.2902C37.3829 33.2902 37.4813 33.1128 37.3958 32.9759L29.6727 20.6198C29.4874 20.3234 29.3849 19.9827 29.3757 19.6333C29.3665 19.2838 29.451 18.9383 29.6205 18.6325C29.79 18.3268 30.0382 18.072 30.3394 17.8945C30.6406 17.7171 30.9838 17.6235 31.3334 17.6235C31.4439 17.6235 31.5098 17.5004 31.4485 17.4084L27.1033 10.8907C25.3891 8.31946 21.6109 8.31946 19.8967 10.8907L15.5515 17.4084C15.4902 17.5004 15.5561 17.6235 15.6666 17.6235C16.0162 17.6239 16.3592 17.7178 16.6602 17.8955Z" fill="url(#paint0_linear_21_139)"/>
<defs>
<linearGradient id="paint0_linear_21_139" x1="23.5" y1="0" x2="23.5" y2="74.4169" gradientUnits="userSpaceOnUse">
<stop stop-color="#FF0000"/>
<stop offset="1" stop-color="#052185"/>
</linearGradient>
</defs>
</svg>
